<svg width="38" height="38" viewBox="0 0 38 38" fill="none" xmlns="http://www.w3.org/2000/svg">
<path d="M27.0596 12.3818C25.5814 11.727 24.0208 11.2624 22.4177 11C22.1984 11.3794 21.9999 11.7698 21.8231 12.1695C20.1155 11.9206 18.3791 11.9206 16.6715 12.1695C16.4946 11.7699 16.2962 11.3795 16.0769 11C14.4728 11.2646 12.9112 11.7303 11.4314 12.3853C8.49373 16.5908 7.69736 20.6918 8.09555 24.7346C9.81594 25.9645 11.7415 26.8998 13.7887 27.5C14.2496 26.9001 14.6575 26.2638 15.008 25.5976C14.3423 25.357 13.6998 25.0602 13.0879 24.7106C13.2489 24.5976 13.4064 24.4812 13.5586 24.3682C15.3391 25.1783 17.2824 25.5984 19.25 25.5984C21.2175 25.5984 23.1608 25.1783 24.9413 24.3682C25.0953 24.4897 25.2528 24.6062 25.4121 24.7106C24.799 25.0608 24.1553 25.3582 23.4884 25.5993C23.8384 26.2652 24.2464 26.901 24.7077 27.5C26.7566 26.9022 28.6837 25.9673 30.4044 24.7363C30.8716 20.0479 29.6062 15.9846 27.0596 12.3818ZM15.5124 22.2483C14.4028 22.2483 13.4861 21.274 13.4861 20.0753C13.4861 18.8767 14.3709 17.8938 15.5088 17.8938C16.6467 17.8938 17.5564 18.8767 17.5369 20.0753C17.5174 21.274 16.6432 22.2483 15.5124 22.2483ZM22.9876 22.2483C21.8762 22.2483 20.963 21.274 20.963 20.0753C20.963 18.8767 21.8479 17.8938 22.9876 17.8938C24.1273 17.8938 25.0298 18.8767 25.0103 20.0753C24.9909 21.274 24.1184 22.2483 22.9876 22.2483Z" fill="white"/>
</svg>
