<svg width="110" height="40" viewBox="0 0 110 40" fill="none" xmlns="http://www.w3.org/2000/svg">
<g clip-path="url(#clip0_2141_299)">
<circle cx="20" cy="20" r="20" fill="black"/>
<path d="M30.9807 25.6158L27.4268 29.4262C27.3498 29.5088 27.2567 29.5747 27.1532 29.6199C27.0497 29.665 26.938 29.6885 26.8251 29.6888H9.97726C9.89708 29.6884 9.81875 29.6647 9.75179 29.6206C9.68483 29.5765 9.63212 29.5139 9.60007 29.4404C9.56802 29.3669 9.55801 29.2856 9.57125 29.2066C9.58448 29.1275 9.62041 29.054 9.67465 28.9949L13.2242 25.1845C13.3012 25.1019 13.3944 25.036 13.4979 24.9908C13.6014 24.9456 13.713 24.9222 13.826 24.9219H30.6738C30.7548 24.9202 30.8346 24.9426 30.903 24.9862C30.9713 25.0297 31.0253 25.0925 31.0581 25.1667C31.0909 25.2408 31.1011 25.323 31.0873 25.4029C31.0735 25.4828 31.0365 25.5569 30.9807 25.6158ZM27.4268 17.9401C27.3495 17.8579 27.2563 17.7923 27.1529 17.7472C27.0494 17.702 26.9379 17.6783 26.8251 17.6775H9.97726C9.89691 17.6776 9.81832 17.701 9.75111 17.7451C9.68391 17.7891 9.63101 17.8518 9.59889 17.9254C9.56677 17.9991 9.55683 18.0805 9.57029 18.1597C9.58374 18.2389 9.62001 18.3125 9.67465 18.3714L13.2242 22.1845C13.3016 22.2666 13.3948 22.3323 13.4982 22.3774C13.6016 22.4225 13.7131 22.4462 13.826 22.4471H30.6738C30.7538 22.4463 30.8319 22.4224 30.8986 22.3781C30.9653 22.3339 31.0177 22.2713 31.0496 22.1978C31.0814 22.1244 31.0913 22.0433 31.078 21.9644C31.0647 21.8855 31.0288 21.8121 30.9746 21.7532L27.4268 17.9401ZM9.97726 15.2027H26.8251C26.938 15.2024 27.0497 15.1789 27.1532 15.1338C27.2567 15.0886 27.3498 15.0227 27.4268 14.9401L30.9807 11.1288C31.0221 11.0846 31.0532 11.0319 31.0719 10.9743C31.0906 10.9167 31.0964 10.8558 31.089 10.7957C31.0815 10.7357 31.0609 10.678 31.0287 10.6267C30.9965 10.5755 30.9534 10.532 30.9025 10.4992C30.8343 10.4556 30.7547 10.4332 30.6738 10.4349H13.826C13.713 10.4352 13.6014 10.4587 13.4979 10.5039C13.3944 10.549 13.3012 10.6149 13.2242 10.6975L9.67465 14.5088C9.62001 14.5677 9.58374 14.6413 9.57029 14.7205C9.55683 14.7997 9.56677 14.8811 9.59889 14.9548C9.63101 15.0284 9.68391 15.0911 9.75111 15.1352C9.81832 15.1792 9.89691 15.2027 9.97726 15.2027Z" fill="url(#paint0_linear_2141_299)"/>
<path d="M65.3908 17.5998H53.8527V13.7983H68.3908V10.0001H53.8126C52.807 9.99479 51.8403 10.3891 51.1254 11.0964C50.4104 11.8036 50.0056 12.7659 50 13.7716V17.6232C50.002 18.1215 50.1023 18.6146 50.2951 19.0742C50.4879 19.5338 50.7694 19.9509 51.1235 20.3016C51.4776 20.6523 51.8974 20.9297 52.3588 21.118C52.8202 21.3063 53.3143 21.4018 53.8126 21.399H65.3674V25.1994H50.2761V28.9987H65.3908C66.3962 29.0032 67.3623 28.6085 68.0771 27.9015C68.7919 27.1944 69.1969 26.2327 69.2034 25.2273V21.3757C69.2014 20.8773 69.1011 20.3842 68.9083 19.9246C68.7155 19.465 68.434 19.048 68.0799 18.6973C67.7258 18.3466 67.306 18.0691 66.8446 17.8808C66.3832 17.6925 65.8892 17.597 65.3908 17.5998ZM87.7434 10.0001H76.163C75.6642 9.99616 75.1695 10.0906 74.7073 10.2781C74.245 10.4656 73.8243 10.7425 73.4693 11.0928C73.1142 11.4431 72.8317 11.8601 72.638 12.3197C72.4442 12.7794 72.3431 13.2728 72.3403 13.7716V25.2273C72.3427 25.7262 72.4435 26.2199 72.637 26.6798C72.8306 27.1397 73.1131 27.5569 73.4682 27.9074C73.8234 28.2579 74.2442 28.5348 74.7067 28.7223C75.1691 28.9098 75.664 29.0041 76.163 28.9998H87.7456C88.2437 29.0025 88.7373 28.907 89.1985 28.7188C89.6596 28.5306 90.0792 28.2535 90.4333 27.9032C90.7873 27.5529 91.0689 27.1362 91.2619 26.6771C91.4549 26.218 91.5556 25.7253 91.5582 25.2273V13.7716C91.5552 13.0213 91.3292 12.2889 90.909 11.6673C90.4888 11.0457 89.8934 10.5631 89.1983 10.2806C88.7372 10.0925 88.2436 9.99715 87.7456 10.0001H87.7434ZM87.7155 25.1994H76.1897V13.8005H87.7111L87.7155 25.1994ZM98.8095 10.0001H94.9579V25.2284C94.9603 25.7276 95.0614 26.2215 95.2553 26.6816C95.4492 27.1417 95.7321 27.5589 96.0877 27.9094C96.4433 28.2598 96.8647 28.5366 97.3275 28.7237C97.7904 28.9108 98.2857 29.0047 98.785 28.9998H110.338V25.1994H98.8106L98.8095 10.0001Z" fill="white"/>
</g>
<defs>
<linearGradient id="paint0_linear_2141_299" x1="11.3816" y1="30.1488" x2="29.0468" y2="10.2323" gradientUnits="userSpaceOnUse">
<stop offset="0.08" stop-color="#9945FF"/>
<stop offset="0.3" stop-color="#8752F3"/>
<stop offset="0.5" stop-color="#5497D5"/>
<stop offset="0.6" stop-color="#43B4CA"/>
<stop offset="0.72" stop-color="#28E0B9"/>
<stop offset="0.97" stop-color="#19FB9B"/>
</linearGradient>
<clipPath id="clip0_2141_299">
<rect width="110" height="40" fill="white"/>
</clipPath>
</defs>
</svg>
